# xmcd
#
# Track frame offsets:
#	150
#	22303
#	41320
#	57350
#	80226
#	100595
#	132710
#	147572
#	169175
#	194205
#	211809
#
# Disc length: 3185 seconds
#
# Revision: 1
# Processed by: cddbd v1.5.2PL0 Copyright (c) Steve Scherf et al.
# Submitted via: audiograbber 1.83.01
#
DISCID=ac0c6f0b
DTITLE=Lyambiko - Saffronia
DYEAR=2008
DGENRE=Blues
TTITLE0=Don't Let Me Be Misunderstood
TTITLE1=Feeling Good
TTITLE2=I Loves You Porgy
TTITLE3=Don't Smoke In Bed
TTITLE4=Here Comes The Sun
TTITLE5=My Baby Just Cares For Me
TTITLE6=Black Is The Colour Of My True Love's Hair
TTITLE7=Four Women
TTITLE8=I Put A Spell On You
TTITLE9=Ne Me Quitte Pas
TTITLE10=Mame Mame - I Sing Just To Know That I'm Alive 
EXTD=
EXTT0=
EXTT1=
EXTT2=
EXTT3=
EXTT4=
EXTT5=
EXTT6=
EXTT7=
EXTT8=
EXTT9=
EXTT10=
PLAYORDER=
